<?xml version="1.0" encoding="utf-8"?>
<!-- Generator: Adobe Illustrator 28.2.0, SVG Export Plug-In . SVG Version: 6.00 Build 0)  -->
<svg version="1.1" id="Livello_1" xmlns="http://www.w3.org/2000/svg" xmlns:xlink="http://www.w3.org/1999/xlink" x="0px" y="0px"
	 viewBox="0 0 101.58 124.01" style="enable-background:new 0 0 101.58 124.01;" xml:space="preserve">
<style type="text/css">
	.st0{fill-rule:evenodd;clip-rule:evenodd;fill:#EFBF01;}
	.st1{fill-rule:evenodd;clip-rule:evenodd;fill:#ECE317;}
	.st2{fill-rule:evenodd;clip-rule:evenodd;fill:#CE0B10;}
	.st3{fill-rule:evenodd;clip-rule:evenodd;fill:#DD5624;}
	.st4{fill-rule:evenodd;clip-rule:evenodd;fill:#EE8522;}
	.st5{fill-rule:evenodd;clip-rule:evenodd;fill:#181512;}
	.st6{fill-rule:evenodd;clip-rule:evenodd;}
	.st7{fill-rule:evenodd;clip-rule:evenodd;fill:#529B48;}
	.st8{fill-rule:evenodd;clip-rule:evenodd;fill:#AEC860;}
	.st9{fill-rule:evenodd;clip-rule:evenodd;fill:#178436;}
	.st10{fill:#181512;}
</style>
<g>
	<g>
		<polygon class="st0" points="29.29,90.16 34.26,92.48 33.37,99.49 29.73,96.67 		"/>
		<polygon class="st0" points="35.69,93.36 34.42,100.32 37.95,103.35 39.94,95.29 		"/>
		<polygon class="st1" points="41.32,96.01 46.35,98.49 43.92,108.21 39.11,104.51 		"/>
		<path class="st1" d="M47.28,98.71c0,0,3.2,1.57,3.28,1.6c0.08,0.03,3.12-1.6,3.12-1.6l2.24,10.79l-5.46,4.53l-5.47-4.64
			L47.28,98.71z"/>
		<polygon class="st1" points="54.6,98.44 59.68,95.82 61.69,104.54 57.19,108.43 		"/>
		<polygon class="st0" points="61.14,95.18 65.39,93.19 66.52,100.54 63.04,103.49 		"/>
		<polygon class="st0" points="66.63,92.45 71.57,90.05 71.08,96.56 67.63,99.46 		"/>
		<polygon class="st2" points="22.33,65.87 25.86,70.45 19.35,78.01 22.88,92.64 15.37,73.6 		"/>
		<polygon class="st3" points="26.76,71.76 29.91,75.32 23.94,82.73 25.44,94.66 21.13,78.76 		"/>
		<polygon class="st4" points="31.03,76.73 32.72,78.76 27.84,85.92 28.62,98.63 25.19,83.77 		"/>
		<polygon class="st5" points="33.96,80.04 35.87,82.61 35.17,88.65 40.26,93.29 29.12,87.87 		"/>
		<polygon class="st2" points="78.6,65.87 75.07,70.45 81.58,78.01 78.05,92.64 85.55,73.6 		"/>
		<polygon class="st3" points="74.17,71.76 71.02,75.32 76.98,82.73 75.49,94.66 79.8,78.76 		"/>
		<polygon class="st4" points="69.9,76.73 68.21,78.76 73.09,85.92 72.3,98.63 75.74,83.77 		"/>
		<polygon class="st6" points="66.96,80.04 65.06,82.61 65.76,88.65 60.67,93.29 71.81,87.87 		"/>
		<polygon class="st2" points="2.95,60.58 6.85,54.12 32.56,39.88 		"/>
		<polygon class="st2" points="1.17,63.69 35.08,40.25 4.28,68.37 		"/>
		<polygon class="st3" points="5.15,69.44 37.11,40.75 8.54,70.56 15.62,83.72 		"/>
		<polygon class="st3" points="10.86,70.97 23.53,57.56 21.38,64.47 13.51,73.33 19.31,88.4 		"/>
		<polygon class="st2" points="98.06,60.58 94.17,54.12 68.45,39.88 		"/>
		<polygon class="st2" points="99.84,63.69 65.93,40.25 96.73,68.37 		"/>
		<polygon class="st3" points="95.86,69.44 63.9,40.75 92.47,70.56 85.39,83.72 		"/>
		<polygon class="st3" points="90.15,70.97 77.48,57.56 79.63,64.47 87.5,73.33 81.7,88.4 		"/>
		<polygon class="st5" points="35.7,38.84 19.02,32.88 16.53,37.77 19.81,44.6 12.89,38.47 17.94,28.78 		"/>
		<polygon class="st7" points="14.46,41.74 18.27,44.43 12.19,45.47 		"/>
		<polygon class="st8" points="11.07,47.08 20.01,45.18 8.59,51.22 		"/>
		<polygon class="st5" points="65.27,38.84 81.95,32.88 84.44,37.77 81.17,44.6 88.08,38.47 83.03,28.78 		"/>
		<polygon class="st7" points="86.51,41.74 82.7,44.43 88.78,45.47 		"/>
		<polygon class="st8" points="89.9,47.08 80.96,45.18 92.39,51.22 		"/>
		<polygon class="st8" points="19.27,27.17 23.04,21.99 41.42,40.75 		"/>
		<polygon class="st7" points="24.65,21.21 32.43,19.55 43.08,39.96 		"/>
		<polygon class="st7" points="34.01,19.01 37.69,17.48 44.56,38.89 		"/>
		<polygon class="st9" points="38.77,16.69 45.93,13.55 46.06,37.44 		"/>
		<polygon class="st8" points="81.62,27.17 77.85,21.99 59.47,40.75 		"/>
		<polygon class="st7" points="76.24,21.21 68.45,19.55 57.81,39.96 		"/>
		<polygon class="st7" points="66.88,19.01 63.2,17.48 56.32,38.89 		"/>
		<polygon class="st9" points="62.12,16.69 54.96,13.55 54.83,37.44 		"/>
		<polygon class="st9" points="47.26,11.15 50.4,18.06 53.76,11.02 53.14,38.18 50.53,41.83 47.79,38.26 		"/>
		<polygon class="st5" points="26.89,53.01 26.6,62.03 37.15,74.04 35.12,78.18 23.57,63.93 		"/>
		<polygon class="st5" points="74.04,53.01 74.33,62.03 63.77,74.04 65.8,78.18 77.36,63.93 		"/>
		<polygon class="st5" points="30.82,51.27 39.51,52.84 44.36,58.84 43.32,64.22 41.58,57.35 33.47,56.11 		"/>
		<polygon class="st5" points="70.07,51.27 61.37,52.84 56.53,58.84 57.57,64.22 59.3,57.35 67.42,56.11 		"/>
		<polygon class="st5" points="43.03,71.36 48.61,71.97 50.43,74.42 52.25,72 57.94,71.47 57.52,75.03 53.49,76.55 50.54,80.66 
			47.59,76.44 43.36,74.95 		"/>
		<path class="st5" d="M40.22,84.8c-0.03,0.08,5.41-0.83,5.41-0.83l4.8-3.29l-2.62,5.85l-5.96,1.55
			C41.85,88.09,40.24,84.72,40.22,84.8z"/>
		<path class="st5" d="M60.81,84.8c0.03,0.08-5.41-0.83-5.41-0.83l-4.8-3.29l2.62,5.85l5.96,1.55
			C59.18,88.09,60.78,84.72,60.81,84.8z"/>
		<polygon class="st5" points="41.98,88.91 44.33,92.09 56.67,92.01 58.9,88.91 58.44,94.57 50.43,98.27 42.51,94.6 		"/>
	</g>
	<g>
		<path class="st10" d="M0.45,27.54l9.18,1.21l-1.06,1.72l-2.45-0.32l-1.63,2.66l1.37,2.08l-0.7,1.14L0,28.26L0.45,27.54z
			 M4.02,32.08l1.27-2.06l-2.9-0.39L4.02,32.08z"/>
		<path class="st10" d="M7.61,18.4l0.54,0.46l-2.45,2.9l2.09,1.76l2.16-2.56l0.54,0.46l-2.16,2.56l3.16,2.67l-1.27,1.51l-6.33-5.35
			L7.61,18.4z"/>
		<path class="st10" d="M9.14,16.87l2.26-2.01c0.39-0.35,0.77-0.61,1.13-0.78c0.37-0.17,0.71-0.27,1.04-0.29
			c0.33-0.02,0.63,0.03,0.91,0.15s0.53,0.3,0.75,0.55c0.16,0.18,0.27,0.37,0.35,0.59c0.07,0.22,0.11,0.44,0.11,0.68
			c0,0.24-0.04,0.48-0.12,0.74s-0.19,0.5-0.33,0.75L20,18.3l-1.6,1.43l-4.51-1.01l-0.26,0.23l2.49,2.8l-1.47,1.31L9.14,16.87z
			 M13.15,18.41l0.32-0.28c0.18-0.16,0.32-0.33,0.43-0.52s0.17-0.38,0.2-0.58s0.01-0.39-0.05-0.59c-0.06-0.2-0.17-0.38-0.33-0.56
			c-0.15-0.16-0.3-0.29-0.48-0.39c-0.17-0.09-0.34-0.15-0.52-0.17c-0.17-0.02-0.35-0.01-0.52,0.05c-0.17,0.05-0.33,0.14-0.47,0.27
			l-0.6,0.53L13.15,18.41z"/>
		<path class="st10" d="M23.86,16.09c-0.55,0.34-1.12,0.57-1.71,0.68c-0.59,0.11-1.16,0.11-1.72,0c-0.55-0.11-1.07-0.34-1.56-0.67
			c-0.48-0.33-0.89-0.77-1.23-1.31c-0.33-0.53-0.53-1.08-0.61-1.65c-0.08-0.57-0.04-1.12,0.11-1.66s0.41-1.04,0.78-1.51
			c0.37-0.47,0.83-0.88,1.38-1.22c0.55-0.34,1.12-0.57,1.7-0.69c0.59-0.12,1.15-0.12,1.7-0.02c0.55,0.1,1.06,0.31,1.54,0.62
			c0.48,0.32,0.88,0.74,1.2,1.26c0.23,0.37,0.41,0.75,0.52,1.14s0.17,0.77,0.18,1.15c0,0.38-0.04,0.75-0.14,1.12
			s-0.25,0.71-0.44,1.04s-0.44,0.64-0.72,0.93C24.56,15.6,24.23,15.86,23.86,16.09z M23.5,15.49c0.33-0.21,0.58-0.47,0.73-0.78
			s0.24-0.67,0.23-1.05c0-0.38-0.08-0.79-0.22-1.23c-0.15-0.44-0.36-0.88-0.65-1.34c-0.28-0.45-0.58-0.83-0.89-1.14
			s-0.65-0.55-0.98-0.71S21.04,9,20.69,9.01S20,9.13,19.67,9.34c-0.34,0.21-0.58,0.47-0.75,0.77s-0.25,0.65-0.25,1.02
			c-0.01,0.37,0.06,0.77,0.21,1.2c0.14,0.42,0.35,0.86,0.63,1.31c0.28,0.45,0.58,0.84,0.91,1.17c0.32,0.33,0.66,0.58,1,0.75
			c0.34,0.17,0.69,0.25,1.04,0.25S23.16,15.7,23.5,15.49z"/>
		<path class="st10" d="M25.97,5.29l2.6-1.04c0.42-0.17,0.83-0.28,1.23-0.33c0.4-0.05,0.77-0.04,1.12,0.03
			c0.34,0.07,0.64,0.22,0.91,0.43c0.26,0.21,0.46,0.49,0.61,0.85c0.14,0.36,0.19,0.71,0.15,1.04c-0.04,0.33-0.16,0.64-0.34,0.92
			s-0.41,0.53-0.7,0.75c-0.29,0.22-0.6,0.39-0.94,0.53L29.54,8.9l1.34,3.36l-1.84,0.73L25.97,5.29z M29.26,8.2l0.6-0.24
			c0.21-0.08,0.38-0.19,0.5-0.33c0.12-0.14,0.21-0.3,0.26-0.47s0.06-0.36,0.05-0.55c-0.02-0.19-0.07-0.39-0.14-0.58
			c-0.09-0.23-0.21-0.42-0.35-0.57s-0.29-0.26-0.45-0.34c-0.17-0.08-0.34-0.12-0.52-0.12c-0.18,0-0.36,0.03-0.54,0.1l-0.55,0.22
			L29.26,8.2z"/>
		<path class="st10" d="M36.69,1.52l5.67,7.32l-1.96,0.48l-1.52-1.96L35.86,8.1l-0.49,2.45l-1.3,0.32l1.79-9.15L36.69,1.52z
			 M36.04,7.26l2.35-0.58l-1.79-2.32L36.04,7.26z"/>
		<path class="st10" d="M44.68,4.5c0.04,0.54,0.15,1.01,0.33,1.41c0.18,0.4,0.42,0.73,0.69,0.99c0.28,0.26,0.59,0.45,0.94,0.58
			s0.71,0.17,1.07,0.15c0.28-0.02,0.54-0.08,0.77-0.2c0.24-0.12,0.45-0.27,0.65-0.45s0.38-0.39,0.56-0.63s0.33-0.48,0.49-0.74
			l0.86,0.57c-0.16,0.3-0.35,0.6-0.59,0.89c-0.23,0.29-0.5,0.55-0.8,0.77c-0.3,0.23-0.63,0.42-0.98,0.56
			c-0.36,0.15-0.74,0.24-1.15,0.26c-0.69,0.04-1.33-0.02-1.93-0.19C45,8.3,44.48,8.04,44.04,7.69c-0.45-0.35-0.81-0.78-1.08-1.3
			c-0.27-0.52-0.43-1.1-0.47-1.75c-0.04-0.63,0.03-1.22,0.22-1.76c0.19-0.54,0.48-1.02,0.86-1.43c0.38-0.41,0.85-0.74,1.41-1
			c0.56-0.25,1.18-0.4,1.87-0.45c0.46-0.03,0.89,0,1.28,0.08c0.39,0.09,0.75,0.22,1.07,0.4c0.33,0.18,0.62,0.39,0.89,0.65
			s0.5,0.55,0.71,0.86l-0.79,0.65c-0.19-0.24-0.39-0.46-0.6-0.67s-0.44-0.38-0.67-0.53C48.5,1.31,48.26,1.19,48,1.11
			c-0.25-0.08-0.52-0.11-0.78-0.09c-0.37,0.02-0.71,0.12-1.04,0.28c-0.32,0.16-0.6,0.39-0.84,0.69c-0.23,0.3-0.41,0.65-0.54,1.07
			S44.64,3.97,44.68,4.5z"/>
		<path class="st10" d="M53.47,0.1l1.97,0.23l-0.36,3.1l3.9-2.69l1.52,0.17l-4.4,3.02l4.52,5.33l-2.37-0.27L54.9,5.03l-0.41,3.53
			l-1.97-0.23L53.47,0.1z"/>
		<path class="st10" d="M69.49,7.88l3.14,1.14l-1.09,3c-0.29,0.05-0.58,0.08-0.86,0.1c-0.28,0.02-0.57,0.03-0.88,0.01
			c-0.3-0.02-0.63-0.06-0.97-0.14c-0.34-0.07-0.71-0.18-1.12-0.33c-0.65-0.24-1.21-0.55-1.7-0.93c-0.48-0.39-0.86-0.82-1.13-1.31
			c-0.28-0.49-0.44-1.01-0.49-1.57s0.03-1.14,0.25-1.72c0.23-0.62,0.54-1.15,0.95-1.58c0.41-0.43,0.88-0.76,1.41-0.98
			c0.53-0.22,1.11-0.34,1.73-0.34c0.62,0,1.26,0.11,1.91,0.35c0.38,0.14,0.73,0.33,1.05,0.56c0.32,0.24,0.59,0.5,0.83,0.78
			c0.24,0.29,0.43,0.59,0.59,0.9s0.27,0.62,0.34,0.92l-1.02,0.44c-0.08-0.29-0.16-0.57-0.27-0.83c-0.1-0.26-0.23-0.5-0.37-0.72
			c-0.14-0.22-0.31-0.41-0.51-0.58c-0.19-0.17-0.42-0.29-0.68-0.39c-0.39-0.14-0.78-0.2-1.17-0.18c-0.39,0.02-0.76,0.13-1.1,0.31
			C68,4.98,67.68,5.24,67.4,5.59c-0.28,0.35-0.52,0.77-0.7,1.28c-0.18,0.51-0.27,0.98-0.26,1.42c0.01,0.44,0.09,0.84,0.25,1.2
			c0.16,0.36,0.39,0.67,0.68,0.93c0.29,0.26,0.64,0.46,1.03,0.61c0.23,0.08,0.47,0.13,0.7,0.15c0.23,0.01,0.46-0.02,0.68-0.08
			l0.75-2.07l-1.28-0.46L69.49,7.88z"/>
		<path class="st10" d="M76.83,6.43l2.62,1.51c0.45,0.26,0.82,0.54,1.1,0.83c0.28,0.29,0.48,0.59,0.61,0.89
			c0.12,0.3,0.17,0.61,0.15,0.91s-0.12,0.6-0.28,0.88c-0.12,0.2-0.27,0.38-0.45,0.51c-0.18,0.14-0.39,0.24-0.61,0.32
			c-0.23,0.07-0.47,0.11-0.74,0.12c-0.27,0-0.54-0.02-0.82-0.08l0.5,4.87l-1.86-1.07l-0.47-4.59l-0.3-0.17l-1.87,3.25l-1.71-0.99
			L76.83,6.43z M76.64,10.72l0.37,0.21c0.21,0.12,0.42,0.2,0.63,0.24c0.21,0.04,0.42,0.05,0.61,0.01c0.19-0.04,0.38-0.11,0.54-0.23
			c0.17-0.12,0.31-0.28,0.43-0.49c0.11-0.19,0.18-0.38,0.22-0.57s0.04-0.37,0-0.54c-0.03-0.17-0.1-0.33-0.21-0.47S79,8.6,78.83,8.51
			l-0.69-0.4L76.64,10.72z"/>
		<path class="st10" d="M82.23,20.16c-0.5-0.41-0.89-0.88-1.19-1.41s-0.47-1.07-0.54-1.63c-0.07-0.56-0.02-1.12,0.14-1.69
			c0.16-0.56,0.45-1.09,0.86-1.58c0.4-0.48,0.86-0.85,1.38-1.1c0.52-0.25,1.05-0.39,1.61-0.42s1.12,0.06,1.68,0.26
			c0.56,0.2,1.09,0.51,1.59,0.92c0.5,0.41,0.89,0.88,1.19,1.4c0.29,0.52,0.48,1.06,0.56,1.61c0.08,0.55,0.04,1.1-0.11,1.65
			c-0.15,0.55-0.42,1.06-0.82,1.54c-0.28,0.34-0.59,0.62-0.92,0.85c-0.33,0.23-0.68,0.41-1.04,0.53c-0.36,0.12-0.73,0.2-1.11,0.22
			c-0.38,0.02-0.75-0.01-1.13-0.09c-0.38-0.08-0.75-0.21-1.11-0.39C82.91,20.67,82.56,20.44,82.23,20.16z M82.67,19.63
			c0.3,0.25,0.63,0.4,0.97,0.45c0.35,0.05,0.71,0.01,1.07-0.11c0.36-0.12,0.73-0.32,1.1-0.6c0.37-0.28,0.72-0.62,1.07-1.03
			c0.34-0.4,0.6-0.81,0.8-1.21c0.2-0.4,0.32-0.79,0.37-1.16c0.05-0.37,0.01-0.72-0.11-1.05c-0.12-0.33-0.33-0.62-0.63-0.87
			c-0.3-0.25-0.63-0.41-0.97-0.47s-0.69-0.03-1.05,0.08c-0.36,0.11-0.71,0.3-1.07,0.57c-0.36,0.27-0.7,0.61-1.04,1.01
			c-0.34,0.41-0.62,0.82-0.83,1.23s-0.34,0.81-0.39,1.19c-0.05,0.38-0.03,0.74,0.09,1.07S82.37,19.37,82.67,19.63z"/>
		<path class="st10" d="M93.22,18.78l1.25,1.53l-4.13,3.37c-0.25,0.2-0.45,0.43-0.6,0.68s-0.26,0.52-0.31,0.79s-0.04,0.55,0.03,0.82
			c0.07,0.27,0.2,0.54,0.4,0.78c0.2,0.24,0.42,0.42,0.68,0.54c0.25,0.12,0.52,0.18,0.79,0.19s0.55-0.04,0.83-0.15
			c0.28-0.1,0.54-0.25,0.79-0.46l4.13-3.37l0.79,0.96l-4.13,3.37c-0.33,0.27-0.69,0.47-1.07,0.6s-0.78,0.17-1.19,0.12
			c-0.41-0.05-0.83-0.21-1.26-0.47c-0.43-0.26-0.85-0.64-1.27-1.15c-0.37-0.46-0.64-0.91-0.79-1.37c-0.16-0.46-0.22-0.89-0.19-1.31
			c0.03-0.42,0.14-0.81,0.34-1.17c0.2-0.36,0.46-0.68,0.8-0.96L93.22,18.78z"/>
		<path class="st10" d="M99.54,27.01l1.4,2.43c0.22,0.39,0.39,0.78,0.51,1.17s0.15,0.76,0.13,1.11c-0.03,0.35-0.12,0.67-0.29,0.96
			c-0.17,0.29-0.42,0.53-0.76,0.72c-0.34,0.2-0.68,0.29-1.01,0.3c-0.33,0-0.65-0.06-0.96-0.2c-0.3-0.14-0.58-0.33-0.84-0.58
			c-0.25-0.25-0.47-0.54-0.66-0.85l-0.58-1.01l-3.13,1.81l-0.99-1.72L99.54,27.01z M97.13,30.68l0.32,0.56
			c0.11,0.2,0.25,0.34,0.4,0.45c0.16,0.1,0.32,0.17,0.5,0.19c0.18,0.02,0.37,0.01,0.56-0.03c0.19-0.05,0.38-0.12,0.55-0.22
			c0.21-0.12,0.39-0.27,0.52-0.42c0.13-0.16,0.22-0.33,0.27-0.5s0.07-0.35,0.04-0.53c-0.02-0.18-0.08-0.35-0.18-0.52l-0.29-0.51
			L97.13,30.68z"/>
	</g>
	<g>
		<path d="M17.77,105.91l-0.39,0.43l-2.45-2.21l-1.5,1.66l2.04,1.83l-0.39,0.43l-2.04-1.83l-1.8,2l2.45,2.21l-0.46,0.52l-3.65-3.29
			l4.54-5.04L17.77,105.91z"/>
		<path d="M18.56,108.54l-2.1,2.93c-0.06,0.08-0.1,0.17-0.12,0.26c-0.02,0.09-0.02,0.19-0.01,0.28c0.02,0.09,0.05,0.18,0.1,0.26
			c0.05,0.08,0.12,0.15,0.2,0.21c0.04,0.03,0.1,0.05,0.18,0.07c0.08,0.01,0.16,0.02,0.25,0.02c0.09,0,0.19-0.02,0.29-0.04
			c0.1-0.02,0.2-0.05,0.3-0.09l2.16-3.01l1.22,0.88l-2.98,4.16l-1.22-0.88l0.28-0.39c-0.26,0.02-0.52,0.01-0.76-0.03
			c-0.24-0.04-0.45-0.13-0.62-0.25c-0.2-0.14-0.36-0.31-0.49-0.5c-0.12-0.19-0.21-0.39-0.25-0.6c-0.04-0.21-0.04-0.42,0-0.63
			c0.04-0.21,0.12-0.41,0.25-0.58l2.1-2.93L18.56,108.54z"/>
		<path d="M24.5,113.59c-0.03-0.09-0.06-0.16-0.08-0.23s-0.06-0.12-0.09-0.17s-0.07-0.1-0.12-0.14c-0.05-0.04-0.1-0.08-0.17-0.12
			c-0.09-0.05-0.19-0.09-0.29-0.11c-0.1-0.02-0.21-0.03-0.32-0.02s-0.21,0.03-0.31,0.07c-0.1,0.04-0.19,0.08-0.27,0.15L21,116.24
			l-1.3-0.75l2.33-4.03l1.2,0.03l0.14,0.66c0.23-0.07,0.46-0.1,0.69-0.09c0.23,0.01,0.44,0.07,0.63,0.18
			c0.19,0.11,0.33,0.25,0.44,0.41c0.11,0.17,0.19,0.33,0.24,0.49L24.5,113.59z"/>
		<path d="M25.02,114.14c0.14-0.17,0.3-0.31,0.49-0.41s0.4-0.17,0.62-0.2s0.46-0.02,0.72,0.02s0.51,0.12,0.77,0.25
			c0.32,0.15,0.59,0.31,0.79,0.48c0.21,0.17,0.36,0.34,0.46,0.52c0.1,0.18,0.15,0.36,0.15,0.55s-0.05,0.38-0.13,0.57l-1.23,2.66
			c-0.09,0.19-0.11,0.38-0.05,0.57s0.16,0.37,0.33,0.56l-1.62-0.75c-0.05-0.02-0.09-0.06-0.12-0.1c-0.03-0.05-0.05-0.1-0.07-0.16
			c-0.01-0.06-0.02-0.12-0.03-0.19c0-0.06,0-0.12,0.01-0.18c-0.12,0.04-0.23,0.08-0.33,0.11s-0.21,0.05-0.32,0.05
			c-0.11,0-0.22-0.01-0.34-0.03c-0.12-0.02-0.26-0.07-0.41-0.14c-0.21-0.1-0.38-0.21-0.52-0.35c-0.14-0.14-0.24-0.29-0.31-0.45
			c-0.07-0.16-0.1-0.33-0.09-0.5s0.05-0.35,0.13-0.52c0.12-0.27,0.3-0.46,0.53-0.58c0.23-0.12,0.5-0.2,0.8-0.24
			c0.3-0.03,0.63-0.03,0.98,0c0.35,0.03,0.7,0.07,1.06,0.12l0.21-0.45c0.07-0.15,0.11-0.28,0.13-0.4c0.02-0.12,0.02-0.22-0.01-0.31
			c-0.02-0.09-0.06-0.17-0.13-0.23s-0.14-0.12-0.23-0.16c-0.11-0.05-0.22-0.07-0.32-0.07c-0.1,0-0.21,0.03-0.3,0.07
			c-0.1,0.04-0.18,0.1-0.27,0.18s-0.15,0.16-0.22,0.26L25.02,114.14z M27.02,116.37c-0.16,0-0.32,0-0.5,0.02s-0.34,0.05-0.49,0.11
			c-0.15,0.05-0.29,0.12-0.42,0.21c-0.13,0.09-0.22,0.21-0.29,0.34c-0.07,0.15-0.09,0.29-0.05,0.42c0.04,0.12,0.12,0.22,0.25,0.28
			c0.11,0.05,0.24,0.07,0.38,0.05s0.3-0.05,0.49-0.09L27.02,116.37z"/>
		<path d="M34.05,115.28c0-0.08,0.01-0.17,0.01-0.29s-0.01-0.22-0.03-0.33c-0.02-0.11-0.07-0.21-0.13-0.31
			c-0.07-0.09-0.16-0.17-0.29-0.21c-0.13-0.05-0.25-0.02-0.37,0.09s-0.22,0.29-0.32,0.55l-0.41,1.13l1.16,0.42l-0.21,0.59
			l-1.16-0.42l-1.54,4.22l-1.41-0.52l1.54-4.22l-0.91-0.33l0.21-0.59l0.91,0.33l0.2-0.54c0.09-0.25,0.23-0.47,0.4-0.66
			s0.39-0.35,0.62-0.47c0.24-0.12,0.49-0.18,0.77-0.2s0.55,0.02,0.83,0.12c0.23,0.08,0.42,0.19,0.56,0.31
			c0.14,0.12,0.26,0.25,0.34,0.39c0.08,0.13,0.15,0.27,0.19,0.4c0.04,0.13,0.07,0.24,0.09,0.34L34.05,115.28z"/>
		<path d="M36.97,118.38c-0.05-0.08-0.1-0.14-0.14-0.2c-0.04-0.06-0.09-0.11-0.13-0.15c-0.05-0.04-0.1-0.08-0.15-0.1
			c-0.05-0.03-0.12-0.05-0.19-0.07c-0.1-0.03-0.2-0.04-0.31-0.03c-0.11,0.01-0.21,0.03-0.31,0.06c-0.1,0.04-0.2,0.08-0.28,0.14
			c-0.09,0.06-0.17,0.13-0.23,0.21l-1,3.57l-1.45-0.41l1.26-4.48l1.17-0.26l0.3,0.6c0.21-0.12,0.42-0.21,0.65-0.26
			c0.22-0.05,0.44-0.04,0.66,0.02c0.21,0.06,0.38,0.16,0.53,0.29c0.14,0.13,0.26,0.27,0.36,0.41L36.97,118.38z"/>
		<path d="M38.3,118.03l1.15-0.34l0.44,0.09l-1.06,5.12l-1.48-0.31L38.3,118.03z M38.69,115.82c0.02-0.1,0.06-0.19,0.12-0.28
			c0.06-0.08,0.13-0.15,0.22-0.2s0.18-0.08,0.28-0.1s0.21-0.02,0.32,0.01c0.11,0.02,0.21,0.06,0.3,0.12
			c0.09,0.06,0.16,0.13,0.22,0.21s0.1,0.17,0.12,0.27c0.02,0.1,0.02,0.2,0,0.3s-0.06,0.19-0.12,0.27c-0.06,0.08-0.13,0.15-0.22,0.2
			c-0.08,0.05-0.18,0.08-0.28,0.1c-0.1,0.02-0.21,0.02-0.32-0.01c-0.11-0.02-0.21-0.06-0.3-0.12c-0.09-0.06-0.16-0.13-0.22-0.21
			c-0.06-0.08-0.1-0.17-0.12-0.27C38.67,116.02,38.67,115.92,38.69,115.82z"/>
		<path d="M44.42,120.08c-0.01-0.04-0.03-0.12-0.05-0.23s-0.08-0.23-0.15-0.35c-0.07-0.12-0.17-0.23-0.3-0.34s-0.3-0.17-0.51-0.19
			c-0.16-0.02-0.31,0-0.45,0.07c-0.14,0.07-0.26,0.16-0.37,0.29c-0.11,0.13-0.2,0.28-0.27,0.46c-0.07,0.18-0.12,0.37-0.15,0.57
			c-0.03,0.29-0.04,0.56-0.01,0.83s0.09,0.5,0.18,0.71c0.09,0.21,0.21,0.38,0.35,0.52c0.15,0.14,0.32,0.22,0.51,0.24
			c0.17,0.02,0.32,0.01,0.46-0.05s0.27-0.13,0.4-0.23c0.12-0.1,0.24-0.23,0.34-0.38s0.21-0.3,0.31-0.47l0.69,0.29
			c-0.12,0.32-0.28,0.6-0.46,0.84c-0.18,0.24-0.38,0.44-0.61,0.59c-0.23,0.15-0.47,0.26-0.74,0.32c-0.27,0.06-0.55,0.07-0.85,0.04
			c-0.34-0.04-0.65-0.15-0.93-0.32c-0.28-0.17-0.52-0.38-0.71-0.64c-0.19-0.26-0.33-0.55-0.43-0.87s-0.11-0.65-0.07-1
			c0.03-0.25,0.09-0.49,0.18-0.71c0.09-0.23,0.21-0.43,0.35-0.62c0.14-0.19,0.3-0.36,0.48-0.51c0.18-0.15,0.37-0.27,0.58-0.36
			c0.21-0.1,0.43-0.16,0.66-0.2s0.46-0.04,0.7-0.01c0.25,0.03,0.47,0.08,0.66,0.13c0.19,0.06,0.35,0.13,0.48,0.22
			c0.14,0.09,0.26,0.2,0.36,0.33s0.21,0.29,0.31,0.47L44.42,120.08z"/>
		<path d="M46.35,120.06c0.06-0.21,0.15-0.4,0.28-0.58s0.3-0.32,0.49-0.44c0.19-0.12,0.42-0.21,0.67-0.27s0.52-0.09,0.8-0.08
			c0.36,0.01,0.66,0.05,0.92,0.12c0.26,0.07,0.47,0.17,0.63,0.29s0.28,0.27,0.36,0.45c0.08,0.17,0.11,0.37,0.11,0.58l-0.06,2.93
			c0,0.21,0.05,0.39,0.18,0.54c0.12,0.15,0.3,0.27,0.53,0.38l-1.78-0.04c-0.05,0-0.1-0.02-0.15-0.05c-0.05-0.03-0.09-0.07-0.13-0.12
			c-0.04-0.05-0.07-0.1-0.1-0.16c-0.03-0.06-0.05-0.11-0.06-0.17c-0.09,0.08-0.18,0.16-0.26,0.23c-0.08,0.07-0.17,0.13-0.27,0.18
			c-0.1,0.05-0.21,0.08-0.33,0.11c-0.12,0.03-0.26,0.04-0.43,0.03c-0.23-0.01-0.44-0.04-0.62-0.11s-0.33-0.17-0.46-0.29
			c-0.12-0.12-0.22-0.26-0.28-0.43c-0.06-0.16-0.09-0.34-0.09-0.53c0.01-0.29,0.09-0.54,0.25-0.75c0.16-0.21,0.38-0.39,0.64-0.54
			c0.26-0.15,0.56-0.28,0.89-0.39c0.33-0.11,0.67-0.21,1.02-0.31l0.01-0.5c0-0.16-0.01-0.3-0.04-0.42
			c-0.03-0.12-0.07-0.21-0.13-0.28c-0.06-0.07-0.13-0.13-0.21-0.16c-0.08-0.03-0.17-0.05-0.27-0.05c-0.12,0-0.23,0.02-0.32,0.06
			c-0.09,0.04-0.18,0.11-0.25,0.18c-0.07,0.08-0.13,0.17-0.17,0.27c-0.04,0.1-0.08,0.21-0.1,0.32L46.35,120.06z M49.08,121.3
			c-0.15,0.06-0.3,0.13-0.45,0.22c-0.15,0.09-0.29,0.19-0.41,0.29c-0.12,0.11-0.22,0.23-0.3,0.36c-0.08,0.13-0.12,0.28-0.12,0.43
			c0,0.17,0.04,0.3,0.12,0.4c0.08,0.1,0.2,0.15,0.34,0.15c0.12,0,0.24-0.03,0.37-0.1c0.12-0.07,0.26-0.17,0.41-0.29L49.08,121.3z"/>
		<path d="M55.19,120.2c-0.01-0.13-0.03-0.24-0.07-0.34c-0.04-0.1-0.08-0.18-0.13-0.25c-0.05-0.06-0.11-0.11-0.17-0.14
			c-0.06-0.03-0.13-0.04-0.19-0.04c-0.06,0.01-0.14,0.03-0.22,0.06c-0.08,0.03-0.17,0.08-0.25,0.13s-0.18,0.12-0.27,0.2
			s-0.18,0.16-0.26,0.26l0.31,3.73l-1.51,0.12l-0.38-4.64l1.01-0.65l0.45-0.04l0.04,0.52c0.22-0.19,0.46-0.34,0.71-0.44
			c0.26-0.1,0.52-0.17,0.78-0.19c0.2-0.02,0.4,0.01,0.59,0.07s0.36,0.16,0.51,0.29c0.15,0.13,0.27,0.28,0.37,0.46
			c0.1,0.18,0.15,0.38,0.17,0.59l0.3,3.65l-1.49,0.12L55.19,120.2z"/>
		<path d="M59.52,116.33l2.74-0.68c0.37-0.09,0.71-0.13,1.04-0.13c0.33,0.01,0.62,0.05,0.87,0.15c0.26,0.09,0.47,0.23,0.64,0.4
			c0.17,0.18,0.29,0.39,0.35,0.64c0.04,0.16,0.06,0.3,0.06,0.44c0,0.14-0.02,0.28-0.07,0.41c-0.05,0.13-0.12,0.27-0.22,0.41
			c-0.1,0.14-0.22,0.28-0.38,0.44c0.2,0.02,0.4,0.05,0.58,0.12c0.18,0.06,0.35,0.15,0.5,0.26s0.28,0.24,0.38,0.39
			c0.11,0.15,0.18,0.32,0.23,0.51c0.06,0.26,0.07,0.51,0.01,0.77c-0.06,0.25-0.17,0.49-0.35,0.7c-0.17,0.22-0.39,0.41-0.67,0.58
			c-0.27,0.17-0.59,0.3-0.95,0.39l-3.15,0.78L59.52,116.33z M61.79,118.8l1.03-0.25c0.17-0.04,0.31-0.1,0.43-0.19
			c0.12-0.09,0.21-0.19,0.27-0.3c0.07-0.12,0.11-0.25,0.12-0.39s0-0.29-0.04-0.45c-0.04-0.17-0.11-0.32-0.21-0.45
			c-0.09-0.13-0.22-0.23-0.36-0.3s-0.32-0.11-0.53-0.12c-0.2-0.01-0.43,0.02-0.69,0.08l-0.58,0.14L61.79,118.8z M62.55,121.85
			l0.87-0.21c0.25-0.06,0.47-0.14,0.64-0.25c0.17-0.1,0.3-0.22,0.4-0.35c0.1-0.13,0.16-0.27,0.18-0.42
			c0.02-0.15,0.02-0.31-0.02-0.47c-0.04-0.18-0.11-0.35-0.21-0.49c-0.09-0.14-0.21-0.26-0.36-0.35c-0.15-0.09-0.33-0.14-0.54-0.15
			c-0.21-0.02-0.46,0.01-0.74,0.08l-0.8,0.2L62.55,121.85z"/>
		<path d="M69.98,116.05c-0.08-0.03-0.16-0.06-0.23-0.08s-0.13-0.04-0.19-0.04c-0.06-0.01-0.12-0.01-0.18,0
			c-0.06,0.01-0.12,0.03-0.19,0.05c-0.1,0.04-0.19,0.09-0.27,0.15c-0.08,0.07-0.15,0.14-0.21,0.23c-0.06,0.09-0.11,0.18-0.15,0.28
			s-0.06,0.2-0.06,0.3l1.27,3.48l-1.41,0.51l-1.59-4.37l0.79-0.9l0.59,0.32c0.09-0.22,0.22-0.42,0.37-0.59
			c0.15-0.17,0.33-0.29,0.54-0.37c0.2-0.07,0.4-0.1,0.6-0.07c0.2,0.03,0.37,0.07,0.53,0.13L69.98,116.05z"/>
		<path d="M69.86,112.98c-0.04-0.09-0.06-0.19-0.06-0.29c0-0.1,0.02-0.2,0.06-0.29c0.04-0.09,0.1-0.18,0.17-0.25
			c0.07-0.08,0.16-0.14,0.26-0.18c0.1-0.05,0.21-0.07,0.31-0.07c0.11,0,0.21,0.01,0.3,0.04s0.18,0.08,0.25,0.15
			c0.08,0.07,0.14,0.15,0.18,0.24c0.04,0.09,0.06,0.19,0.06,0.29c0,0.1-0.02,0.2-0.06,0.29c-0.04,0.09-0.1,0.17-0.17,0.25
			c-0.07,0.08-0.16,0.14-0.27,0.18c-0.1,0.04-0.21,0.07-0.31,0.07c-0.1,0-0.2-0.01-0.3-0.04c-0.09-0.03-0.18-0.08-0.26-0.15
			C69.97,113.15,69.91,113.07,69.86,112.98z M70.84,115.01l0.73-0.95l0.41-0.18l2.12,4.77l-1.38,0.61L70.84,115.01z"/>
		<path d="M78.35,116.13c-0.1,0.2-0.22,0.39-0.38,0.56c-0.15,0.17-0.32,0.3-0.51,0.41c-0.27,0.15-0.56,0.23-0.87,0.23
			c-0.31,0.01-0.61-0.05-0.91-0.16s-0.57-0.28-0.82-0.5c-0.25-0.22-0.46-0.48-0.63-0.78c-0.17-0.3-0.26-0.63-0.3-0.98
			c-0.03-0.35,0-0.7,0.09-1.04c0.09-0.34,0.25-0.66,0.46-0.95s0.49-0.53,0.82-0.72c0.13-0.07,0.25-0.13,0.38-0.17
			c0.12-0.04,0.24-0.07,0.35-0.08l-1-1.82l0.64-1.01l0.39-0.22l3.74,6.77l-1.31,0.72L78.35,116.13z M76.81,113.34
			c-0.08-0.14-0.17-0.26-0.28-0.36c-0.11-0.1-0.22-0.17-0.34-0.21c-0.12-0.04-0.24-0.07-0.35-0.06c-0.12,0-0.22,0.03-0.31,0.08
			c-0.12,0.07-0.21,0.17-0.27,0.31s-0.1,0.3-0.1,0.49c0,0.19,0.03,0.39,0.08,0.61c0.06,0.22,0.15,0.44,0.28,0.67
			c0.14,0.25,0.29,0.47,0.47,0.66c0.18,0.2,0.36,0.35,0.55,0.47s0.37,0.2,0.55,0.23s0.34,0.01,0.48-0.07
			c0.05-0.03,0.1-0.06,0.14-0.11c0.05-0.05,0.09-0.1,0.13-0.16c0.04-0.06,0.07-0.12,0.1-0.19c0.03-0.07,0.05-0.13,0.06-0.21
			L76.81,113.34z"/>
		<path d="M82.98,107.71l0.31,0.44l-0.74,0.52c0.14,0.06,0.27,0.13,0.39,0.22c0.13,0.09,0.24,0.21,0.34,0.34
			c0.16,0.23,0.26,0.47,0.28,0.73s-0.01,0.51-0.1,0.76c-0.1,0.25-0.25,0.51-0.46,0.75s-0.47,0.48-0.78,0.7
			c-0.09,0.06-0.19,0.12-0.29,0.18c-0.1,0.05-0.2,0.1-0.28,0.14c-0.03,0.08-0.03,0.17-0.01,0.27c0.02,0.1,0.06,0.18,0.11,0.25
			c0.02,0.02,0.04,0.04,0.06,0.05s0.06,0.01,0.12-0.01c0.05-0.01,0.13-0.04,0.22-0.08c0.09-0.04,0.21-0.11,0.36-0.19
			c0.15-0.09,0.33-0.2,0.55-0.33c0.22-0.13,0.47-0.3,0.78-0.5c0.28-0.18,0.52-0.31,0.74-0.38s0.41-0.11,0.58-0.11
			c0.17,0,0.32,0.04,0.45,0.12c0.13,0.08,0.24,0.18,0.33,0.31c0.17,0.23,0.26,0.49,0.28,0.78s-0.03,0.58-0.16,0.88
			s-0.32,0.61-0.59,0.92c-0.27,0.31-0.61,0.61-1.02,0.9c-0.37,0.26-0.71,0.46-1.02,0.61c-0.31,0.15-0.59,0.24-0.83,0.29
			c-0.24,0.05-0.45,0.05-0.62,0c-0.17-0.05-0.3-0.14-0.39-0.26c-0.07-0.09-0.11-0.21-0.12-0.34c-0.01-0.13-0.01-0.28,0.01-0.43
			c0.02-0.15,0.05-0.31,0.09-0.48c0.04-0.17,0.09-0.33,0.14-0.49c-0.2,0.06-0.37,0.08-0.52,0.06s-0.26-0.08-0.34-0.18
			c-0.05-0.07-0.08-0.17-0.1-0.28c-0.01-0.11-0.01-0.23,0-0.37c0.02-0.13,0.05-0.27,0.1-0.41s0.11-0.28,0.19-0.41
			c-0.18,0.03-0.34,0.05-0.5,0.05c-0.16,0-0.31-0.02-0.45-0.06c-0.14-0.04-0.27-0.11-0.4-0.2s-0.24-0.21-0.34-0.36
			c-0.17-0.24-0.27-0.49-0.3-0.75c-0.04-0.27-0.01-0.53,0.07-0.8c0.08-0.26,0.22-0.52,0.41-0.76c0.19-0.25,0.42-0.47,0.71-0.67
			c0.13-0.1,0.27-0.18,0.42-0.25c0.14-0.07,0.28-0.13,0.42-0.17c0.14-0.04,0.27-0.08,0.39-0.1c0.12-0.02,0.22-0.02,0.31-0.01
			L82.98,107.71z M82.14,111.74c0.09-0.06,0.16-0.15,0.21-0.26s0.07-0.24,0.08-0.37c0-0.13-0.01-0.27-0.05-0.41s-0.1-0.27-0.19-0.39
			c-0.13-0.18-0.27-0.33-0.42-0.46s-0.31-0.22-0.48-0.28c-0.16-0.06-0.32-0.09-0.47-0.09c-0.15,0.01-0.29,0.05-0.4,0.13
			c-0.11,0.08-0.19,0.17-0.23,0.28c-0.04,0.11-0.05,0.23-0.04,0.36c0.01,0.13,0.05,0.26,0.11,0.4c0.06,0.14,0.14,0.28,0.24,0.41
			c0.12,0.17,0.25,0.31,0.39,0.43c0.14,0.12,0.29,0.21,0.44,0.28s0.29,0.1,0.44,0.1C81.89,111.87,82.02,111.83,82.14,111.74z
			 M84.21,112.81c-0.18,0.13-0.37,0.25-0.55,0.38c-0.19,0.12-0.37,0.24-0.54,0.35s-0.33,0.2-0.47,0.28
			c-0.14,0.08-0.26,0.15-0.35,0.2c-0.02,0.07-0.03,0.14-0.03,0.21c0,0.07,0.01,0.15,0.03,0.22c0.02,0.07,0.04,0.14,0.07,0.2
			s0.06,0.12,0.1,0.18c0.06,0.08,0.14,0.14,0.25,0.18c0.11,0.04,0.25,0.05,0.41,0.03s0.34-0.07,0.54-0.15s0.42-0.2,0.65-0.37
			c0.25-0.17,0.45-0.36,0.62-0.54c0.16-0.18,0.29-0.36,0.38-0.53c0.09-0.17,0.14-0.32,0.15-0.45c0.01-0.13,0-0.24-0.06-0.31
			c-0.11-0.16-0.27-0.22-0.48-0.2S84.48,112.62,84.21,112.81z"/>
		<path d="M88.27,109.53c-0.26,0.23-0.56,0.4-0.88,0.51c-0.32,0.1-0.64,0.15-0.97,0.13s-0.63-0.1-0.93-0.23
			c-0.3-0.14-0.56-0.33-0.79-0.58c-0.27-0.3-0.47-0.62-0.6-0.96c-0.14-0.34-0.2-0.68-0.2-1.02c0-0.34,0.07-0.67,0.22-0.98
			s0.36-0.6,0.65-0.86c0.26-0.23,0.53-0.4,0.83-0.5s0.58-0.15,0.86-0.14s0.56,0.08,0.82,0.2c0.26,0.12,0.49,0.3,0.69,0.53
			l-2.58,2.28c0.2,0.21,0.41,0.38,0.63,0.53c0.22,0.15,0.44,0.25,0.66,0.32c0.22,0.07,0.42,0.09,0.62,0.08
			c0.19-0.02,0.36-0.09,0.5-0.21c0.12-0.11,0.23-0.24,0.31-0.39c0.08-0.15,0.14-0.31,0.17-0.47c0.03-0.17,0.04-0.33,0.03-0.5
			c-0.01-0.17-0.06-0.32-0.13-0.47l0.66-0.41c0.12,0.26,0.21,0.54,0.24,0.83c0.03,0.29,0.03,0.59-0.02,0.87
			c-0.05,0.29-0.14,0.56-0.27,0.82C88.64,109.13,88.47,109.35,88.27,109.53z M86.31,106.36c-0.11-0.1-0.22-0.19-0.34-0.25
			s-0.24-0.1-0.36-0.12c-0.12-0.02-0.23-0.01-0.34,0.02s-0.21,0.09-0.3,0.17c-0.07,0.06-0.12,0.14-0.16,0.24
			c-0.04,0.1-0.05,0.2-0.05,0.32c0,0.11,0.03,0.23,0.07,0.36s0.11,0.25,0.2,0.38L86.31,106.36z"/>
	</g>
</g>
</svg>
